<?xml version="1.0" encoding="UTF-8"?>
<svg version="1.1" xmlns="http://www.w3.org/2000/svg" width="744" height="1052">
<path d="M0 0 C5.70080853 4.6160393 8.54209981 11.31311083 9.6875 18.4375 C10.76420849 31.57334363 5.63146171 44.10637237 0.8046875 56.078125 C-1.61492696 62.11662073 -3.81875999 68.23304265 -6.03692627 74.34753418 C-10.55913539 86.80905951 -15.27682287 99.17295683 -20.3125 111.4375 C-19.16523438 111.51226562 -18.01796875 111.58703125 -16.8359375 111.6640625 C-3.91995657 112.62268574 8.83416682 114.39100763 21.625 116.375 C22.46500549 116.50215393 23.30501099 116.62930786 24.17047119 116.76031494 C26.60367686 117.13065892 29.03439515 117.51436058 31.46484375 117.90234375 C32.19020828 118.01177811 32.91557281 118.12121246 33.66291809 118.23396301 C42.13072886 119.62687923 48.98483947 122.87225217 54.6875 129.4375 C61.12350937 139.9041415 61.94284594 151.6189441 62.3125 163.625 C62.35117187 164.67236328 62.38984375 165.71972656 62.4296875 166.79882812 C62.52269437 169.34489113 62.60853284 171.89096963 62.6875 174.4375 C63.32816406 174.71851563 63.96882813 174.99953125 64.62890625 175.2890625 C66.6875 176.4375 66.6875 176.4375 67.625 178.8125 C67.6875 181.4375 67.6875 181.4375 66.375 183.75 C65.5396875 184.5853125 65.5396875 184.5853125 64.6875 185.4375 C64.0275 185.4375 63.3675 185.4375 62.6875 185.4375 C62.6875 203.5875 62.6875 221.7375 62.6875 240.4375 C68.9575 240.7675 75.2275 241.0975 81.6875 241.4375 C84.93813136 241.80386692 88.05197682 242.16974818 91.25 242.75 C91.98976074 242.8826123 92.72952148 243.01522461 93.49169922 243.15185547 C102.78134503 244.91674535 109.82500338 247.11265512 115.94140625 254.73046875 C123.24318781 266.05068043 124.68442183 280.38743372 126.6875 293.4375 C126.86756592 294.5500415 126.86756592 294.5500415 127.05126953 295.68505859 C130.60246403 318.19359837 129.09926175 341.19945664 126.8125 363.75 C126.72554871 364.61071106 126.63859741 365.47142212 126.54901123 366.35821533 C125.64485711 375.14674481 124.64022076 383.80858531 122.6875 392.4375 C123.46456299 392.57994141 124.24162598 392.72238281 125.04223633 392.86914062 C134.06004136 394.80669947 141.25210719 402.27889828 147.6875 408.4375 C148.574375 409.241875 149.46125 410.04625 150.375 410.875 C163.51881916 425.43977259 165.64311081 441.5517989 164.6875 460.4375 C163.09194282 479.64585018 157.64649177 498.49520686 152.55078125 517.01171875 C151.60138587 520.77922891 150.88835053 524.55569475 150.1875 528.375 C149.096317 533.97095986 147.88766319 538.69205253 144.6875 543.4375 C144.09195313 544.32115234 144.09195313 544.32115234 143.484375 545.22265625 C131.46875875 560.93272923 107.66730502 564.50729876 89.2265625 567.09375 C74.89179904 568.92994211 60.61479147 569.58751623 46.17835617 569.48237419 C43.61927932 569.46416371 41.06025362 569.45318365 38.50112915 569.44398499 C34.80194158 569.43056654 31.10276927 569.41535934 27.40359497 569.39868164 C-3.51400133 569.266083 -34.39410961 569.46518025 -65.2994194 570.36628342 C-72.51063339 570.57584927 -79.72212515 570.77597666 -86.93359375 570.9765625 C-88.06918448 571.00819772 -88.06918448 571.00819772 -89.22771645 571.04047203 C-123.5613076 571.9914397 -157.24264077 572.19073733 -191.3125 567.4375 C-192.12503235 567.32623779 -192.9375647 567.21497559 -193.77471924 567.1003418 C-214.16710525 564.3069863 -234.32964709 560.9789353 -254.34912109 556.14453125 C-257.2957975 555.44148504 -260.24891474 554.77807138 -263.20703125 554.125 C-278.65245556 550.67947199 -293.36263608 547.35871473 -302.41796875 533.12890625 C-312.09936756 515.63984955 -309.46150117 495.84476029 -308.56787109 476.58520508 C-308.4384768 473.77124267 -308.31852109 470.95698424 -308.19921875 468.14257812 C-307.79069312 458.94603613 -307.20539722 449.80985428 -306.2578125 440.65234375 C-305.36883778 432.03203289 -305.11295477 423.52242747 -305.07769775 414.86288452 C-304.98661883 401.82597924 -304.36187495 390.28043056 -298.3125 378.4375 C-297.67828125 376.8596875 -297.67828125 376.8596875 -297.03125 375.25 C-294.78499307 371.57430684 -292.56489385 370.56198471 -288.6875 368.75 C-288.06012939 368.45528809 -287.43275879 368.16057617 -286.78637695 367.85693359 C-280.44564163 364.93144332 -274.51730925 362.57347144 -267.55078125 361.8671875 C-266.75325439 361.78452637 -265.95572754 361.70186523 -265.1340332 361.61669922 C-264.23237427 361.52799561 -264.23237427 361.52799561 -263.3125 361.4375 C-263.32821045 360.19552856 -263.32821045 360.19552856 -263.34423828 358.9284668 C-264.24443178 276.27589052 -264.24443178 276.27589052 -247.70703125 256.51953125 C-233.42033558 242.72022818 -205.82337497 235.4375 -186.3125 235.4375 C-186.5290625 234.43009766 -186.5290625 234.43009766 -186.75 233.40234375 C-192.08832574 204.67177117 -189.05007751 165.94621579 -173.46484375 140.41015625 C-161.41894942 123.3351609 -149.16317528 112.23173159 -128.3125 108.4375 C-123.48614105 107.88736716 -118.66202181 107.57730258 -113.8125 107.3125 C-111.3644164 107.16684158 -108.9164899 107.01851198 -106.46875 106.8671875 C-105.40462891 106.80772949 -104.34050781 106.74827148 -103.24414062 106.68701172 C-100.53033875 106.45604024 -97.96783439 106.03145638 -95.3125 105.4375 C-95.82296875 105.09203125 -96.3334375 104.7465625 -96.859375 104.390625 C-108.2326505 95.59851841 -116.88945564 80.37236639 -119.8203125 66.3828125 C-122.3386084 46.19647231 -119.94840897 24.12800833 -107.3125 7.4375 C-102.10447126 0.85194161 -95.56477905 -2.93034869 -87.3125 -4.5625 C-76.9756039 -5.41690469 -68.5300134 -4.27038158 -60.375 2.4375 C-58.07260928 4.58784605 -55.95676724 6.72929513 -54.3125 9.4375 C-54.3125 10.0975 -54.3125 10.7575 -54.3125 11.4375 C-53.65765625 10.85742188 -53.0028125 10.27734375 -52.328125 9.6796875 C-37.48837134 -3.02213555 -18.12414911 -12.02598616 0 0 Z M-38.3125 20.4375 C-40.57784199 23.62233454 -42.71767535 26.88545338 -44.77490234 30.20825195 C-47.59131487 34.68731663 -50.4699665 38.01623325 -55.3125 40.4375 C-56.85273996 40.50700541 -58.39584988 40.52202357 -59.9375 40.5 C-61.16339844 40.48646484 -61.16339844 40.48646484 -62.4140625 40.47265625 C-63.04054688 40.46105469 -63.66703125 40.44945312 -64.3125 40.4375 C-64.46283691 39.8077124 -64.61317383 39.1779248 -64.76806641 38.52905273 C-65.47049934 35.63888366 -66.20367765 32.75735197 -66.9375 29.875 C-67.17339844 28.88435547 -67.40929687 27.89371094 -67.65234375 26.87304688 C-69.28313819 20.57985296 -71.23050049 15.69286017 -76.3125 11.4375 C-81.35536213 9.19622794 -86.0543038 8.8278481 -91.3125 10.4375 C-100.4058417 15.96482534 -102.83253301 26.41991468 -105.515625 36.140625 C-110.02323133 54.78974138 -103.97146911 71.81537179 -95.3125 88.4375 C-93.59480005 90.77207235 -91.85545671 92.71675965 -89.78515625 94.73046875 C-87.50295216 97.37588835 -86.72231902 100.32405387 -85.8203125 103.65234375 C-85.4667389 105.44547893 -85.4667389 105.44547893 -84.3125 106.4375 C-81.51355123 106.66963307 -78.73392325 106.84165059 -75.9296875 106.97265625 C-75.08205841 107.01563339 -74.23442932 107.05861053 -73.3611145 107.10289001 C-71.56051426 107.19328491 -69.75979819 107.28139632 -67.95898438 107.36743164 C-65.21978168 107.49845587 -62.48098999 107.63627606 -59.7421875 107.77539062 C-57.99220755 107.86238344 -56.24220806 107.9489842 -54.4921875 108.03515625 C-53.27147049 108.09607201 -53.27147049 108.09607201 -52.02609253 108.15821838 C-47.44852038 108.37508634 -42.895198 108.47688077 -38.3125 108.4375 C-37.73242188 106.87902344 -37.73242188 106.87902344 -37.140625 105.2890625 C-32.40828186 92.60644389 -32.40828186 92.60644389 -30.375 87.6875 C-25.16755396 74.77559486 -20.94198563 61.43767797 -16.5 48.25 C-15.92245972 46.54952515 -15.92245972 46.54952515 -15.33325195 44.81469727 C-12.40228739 36.05684279 -10.03296338 27.8944942 -9.9375 18.625 C-9.90914063 17.36042969 -9.88078125 16.09585937 -9.8515625 14.79296875 C-10.04163465 11.38874972 -10.04163465 11.38874972 -12.1328125 9.01953125 C-21.60100676 2.14745477 -32.68633201 13.67867113 -38.3125 20.4375 Z M-150.25 133.25 C-156.07462916 140.24207797 -156.07462916 140.24207797 -158.109375 148.61328125 C-157.84640625 149.54527344 -157.5834375 150.47726562 -157.3125 151.4375 C-157.12365234 152.12932373 -156.93480469 152.82114746 -156.74023438 153.53393555 C-156.04834089 156.0129654 -155.30932201 158.4744961 -154.5625 160.9375 C-154.32273437 161.77925781 -154.08296875 162.62101562 -153.8359375 163.48828125 C-152.290632 168.54636883 -150.91030872 172.4065423 -146.3125 175.4375 C-139.8962146 175.59479402 -135.76006481 173.38724809 -130.5 169.9375 C-121.52063477 164.22255425 -113.78186721 163.48753385 -103.3125 164.4375 C-96.24249825 166.1200035 -90.40059489 169.30535766 -86.3125 175.4375 C-79.53863615 175.16490991 -74.96525661 174.24696641 -69.3125 170.4375 C-69.745625 169.97859375 -70.17875 169.5196875 -70.625 169.046875 C-71.181875 168.43328125 -71.73875 167.8196875 -72.3125 167.1875 C-72.869375 166.58421875 -73.42625 165.9809375 -74 165.359375 C-75.3125 163.4375 -75.3125 163.4375 -75.3125 159.4375 C-73.3359375 157.4375 -73.3359375 157.4375 -70.6875 155.4375 C-69.77613281 154.74527344 -68.86476563 154.05304688 -67.92578125 153.33984375 C-60.24431818 147.74810606 -60.24431818 147.74810606 -56.3125 146.4375 C-56.91666667 147.64583333 -57.52083333 148.85416667 -58.125 150.0625 C-58.48722656 150.79339844 -58.84945312 151.52429688 -59.22265625 152.27734375 C-60.13178261 154.07930389 -61.09117102 155.85579365 -62.0625 157.625 C-63.34542022 160.51157049 -63.58737168 162.32228764 -63.3125 165.4375 C-62.425625 164.9425 -61.53875 164.4475 -60.625 163.9375 C-54.18021888 161.18667879 -45.84253583 161.24545812 -39.25 163.5625 C-36.9343277 164.56741439 -34.78456036 165.73432443 -32.58203125 166.97265625 C-24.71914672 171.27537314 -18.31644955 173.29292273 -9.42138672 170.93652344 C-6.14968243 169.9480203 -2.96179325 168.82274621 0.2421875 167.62890625 C9.76532278 164.33575856 18.27241148 165.31791297 27.875 167.4375 C29.61750887 167.817031 31.3609799 168.19217636 33.10546875 168.5625 C33.86625732 168.73007812 34.6270459 168.89765625 35.41088867 169.0703125 C37.87096953 169.46709123 40.19982165 169.49895803 42.6875 169.4375 C43.8353658 152.0532389 43.8353658 152.0532389 37.4375 136.5 C31.01422314 131.68254236 24.40090387 130.69482286 16.625 129.625 C14.30576695 129.2892949 11.98677076 128.95195087 9.66796875 128.61328125 C8.40130371 128.42975098 7.13463867 128.2462207 5.82958984 128.05712891 C1.3123192 127.39064189 -3.19316381 126.6559399 -7.69921875 125.91796875 C-9.34690823 125.65005052 -10.9946134 125.38222878 -12.64233398 125.11450195 C-15.06030924 124.72144821 -17.47788396 124.32659178 -19.89431763 123.92416382 C-41.50423167 120.33312109 -62.8208766 119.06417619 -84.72802734 119.06689453 C-88.70322342 119.06248255 -92.67733974 119.0258965 -96.65234375 118.98828125 C-125.81122658 118.83696643 -125.81122658 118.83696643 -150.25 133.25 Z M-166.3125 171.4375 C-168.93296963 180.55930654 -170.18248668 189.56249097 -171 199 C-171.06353668 199.69706055 -171.12707336 200.39412109 -171.1925354 201.11230469 C-172.2036626 212.24475295 -172.61833729 223.26249229 -172.3125 234.4375 C-171.40113281 234.43314941 -170.48976563 234.42879883 -169.55078125 234.42431641 C-158.13400687 234.39449647 -146.72636143 234.5619061 -135.3125 234.8125 C-134.34497803 234.83328613 -133.37745605 234.85407227 -132.38061523 234.87548828 C-120.49732372 235.13867331 -108.66865085 235.5730471 -96.8125 236.4375 C-80.11484106 237.65282538 -63.40384303 237.86048959 -46.66796875 238.09570312 C-36.91175468 238.23762284 -27.18754849 238.4184856 -17.45046997 239.06335449 C-9.72218872 239.56771196 -1.98789354 239.75573628 5.75366211 239.94018555 C8.25189809 240.00004548 10.74995889 240.06513951 13.24804688 240.13085938 C14.89582561 240.17218427 16.54361188 240.21320989 18.19140625 240.25390625 C18.90857315 240.27264297 19.62574005 240.2913797 20.36463928 240.3106842 C28.14337117 240.49092885 35.89892593 240.4375 43.6875 240.4375 C43.6875 221.2975 43.6875 202.1575 43.6875 182.4375 C25.46752102 177.18897791 25.46752102 177.18897791 7.171875 178.75 C6.23762695 179.02150879 5.30337891 179.29301758 4.34082031 179.57275391 C3.38272461 179.85812012 2.42462891 180.14348633 1.4375 180.4375 C-11.58234041 184.043475 -22.72503206 185.69127375 -35.3125 179.4375 C-36.7442401 178.54455962 -38.16224739 177.62904917 -39.5625 176.6875 C-43.41355283 174.20294979 -45.6509472 173.50518944 -50.3125 174.4375 C-55.31124109 176.95087262 -60.00432288 179.94530694 -64.69921875 182.98046875 C-71.09213803 186.89426673 -77.43351848 188.57197443 -84.8828125 186.83984375 C-89.5778816 185.13990494 -93.36794032 182.76832489 -97.375 179.8125 C-101.82683889 176.62074615 -105.6666949 174.01726208 -111.3125 174.4375 C-115.59069501 175.98590838 -119.40142261 178.13043304 -123.3125 180.4375 C-124.9565021 181.35744687 -126.60214941 182.27446465 -128.25 183.1875 C-129.25353516 183.76757812 -129.25353516 183.76757812 -130.27734375 184.359375 C-136.63154128 187.72551419 -142.18836576 188.18587426 -149.3125 187.4375 C-154.53182103 185.12895416 -157.82450317 180.83470339 -161.48046875 176.55859375 C-163.02963412 174.76499717 -164.62754901 173.10047982 -166.3125 171.4375 Z M-233.3125 264.4375 C-236.71637247 269.44967467 -239.00160388 275.30447543 -238.3125 281.4375 C-236.36772619 284.27143369 -236.36772619 284.27143369 -234.703125 285.84765625 C-233.04780367 287.74011631 -232.30278987 289.54373139 -231.375 291.875 C-229.31553644 296.84293046 -226.26648037 301.96050981 -221.3125 304.4375 C-214.59200655 305.01290998 -210.23729067 303.49774513 -204.25 300.5625 C-192.95953181 295.16975317 -183.21045056 292.2985162 -170.9453125 296.31640625 C-167.89009881 297.6173652 -165.15332313 299.21920161 -162.3125 300.9375 C-152.25202715 307.00714752 -142.81856113 309.0146436 -131.15234375 306.8515625 C-122.67116046 304.60502792 -116.06245143 300.43128532 -108.92871094 295.53173828 C-106.58212578 293.94300797 -104.1754938 292.46465278 -101.75 291 C-101.00621094 290.54753906 -100.26242187 290.09507812 -99.49609375 289.62890625 C-92.72043443 285.93199016 -86.43589521 285.36018897 -78.87890625 286.94921875 C-71.63164297 289.52406966 -68.38410258 295.24194804 -64.3125 301.4375 C-59.61746762 308.21100739 -54.49631364 314.937735 -46.08984375 316.9765625 C-35.91643952 317.65837795 -26.73730986 309.91580283 -18.8125 304.4375 C-5.46594417 295.21122507 5.99629402 288.95383725 22.6875 290.4375 C29.62378517 292.05229655 33.63061233 294.65950848 37.6875 300.4375 C38.67040968 301.45430311 39.66084787 302.46488219 40.6875 303.4375 C41.80125 302.2 41.80125 302.2 42.9375 300.9375 C45.6875 298.4375 45.6875 298.4375 49.6875 298.4375 C52.1792957 301.33337068 53.63258242 303.25677195 53.8125 307.125 C52.20833901 310.42244204 50.00001062 311.09839996 46.6875 312.4375 C50.28706704 315.71945818 52.73786851 317.53088927 57.6875 317.4375 C61.90733891 315.76374877 65.83918045 313.55145843 69.72265625 311.2109375 C78.7457954 306.0601517 88.87514733 308.57736038 98.6953125 310 C103.02696382 310.56203889 107.32692564 310.52810934 111.6875 310.4375 C110.90570175 300.22744816 109.66724588 290.28991774 107.3125 280.3125 C107.11567627 279.46147705 106.91885254 278.6104541 106.71606445 277.73364258 C105.69905854 273.6102634 104.50444226 269.55163044 103.0234375 265.5703125 C102.76868652 264.8705127 102.51393555 264.17071289 102.25146484 263.44970703 C98.8482527 259.07111283 93.57908046 257.37303788 88.22436523 256.64453125 C86.58738656 256.49428268 84.94851009 256.36379007 83.30859375 256.25 C82.40483505 256.17595947 81.50107635 256.10191895 80.56993103 256.02563477 C70.1311381 255.22343057 59.66752261 254.87504197 49.20507812 254.54638672 C43.22085977 254.3577942 37.23739507 254.14780992 31.25390625 253.9375 C30.07023468 253.89616943 28.88656311 253.85483887 27.66702271 253.81225586 C18.16575848 253.47269064 8.67835161 252.9900639 -0.8125 252.4375 C-12.39935581 251.7648176 -23.9848909 251.29337333 -35.5859375 250.9375 C-36.26428398 250.91654266 -36.94263046 250.89558533 -37.6415329 250.87399292 C-45.12462054 250.64340666 -52.60789787 250.42544155 -60.09179688 250.22265625 C-71.43444233 249.89982566 -82.70337177 249.48703523 -94 248.39453125 C-108.25288023 247.05442675 -122.51970275 247.09838056 -136.82177734 247.12182617 C-139.90265432 247.12647489 -142.98313814 247.11945139 -146.06396484 247.10131836 C-192.88542291 245.54284594 -192.88542291 245.54284594 -233.3125 264.4375 Z M-93.40234375 300.8515625 C-94.18005127 301.36275635 -94.95775879 301.8739502 -95.7590332 302.40063477 C-96.58105225 302.94905029 -97.40307129 303.49746582 -98.25 304.0625 C-111.58210733 312.68425756 -126.7390372 321.45793981 -143.3125 319.4375 C-144.87097656 319.25767578 -144.87097656 319.25767578 -146.4609375 319.07421875 C-155.4212318 317.66999352 -162.75828709 314.69154085 -170.7902832 310.57446289 C-176.55046168 307.63860639 -180.57133775 305.65633977 -187.08203125 307.51171875 C-188.43563103 308.03433838 -189.78322134 308.5727377 -191.125 309.125 C-191.82915039 309.40174561 -192.53330078 309.67849121 -193.25878906 309.96362305 C-197.73425398 311.73906946 -202.16416992 313.61319154 -206.515625 315.67578125 C-213.47482918 318.62587867 -220.59920758 317.88040427 -227.63671875 315.63671875 C-232.71254947 313.36185739 -236.99062323 309.89664472 -241.3125 306.4375 C-243.42963865 309.61320798 -243.61112503 310.68996076 -243.81494141 314.36791992 C-243.8748526 315.36873093 -243.93476379 316.36954193 -243.99649048 317.40068054 C-244.05178925 318.47888565 -244.10708801 319.55709076 -244.1640625 320.66796875 C-244.22782074 321.77352615 -244.29157898 322.87908356 -244.35726929 324.0181427 C-244.55918436 327.55334193 -244.74848317 331.08908994 -244.9375 334.625 C-245.07208706 337.02022905 -245.20749345 339.41541222 -245.34375 341.81054688 C-245.67617986 347.6856983 -245.99825102 353.56134961 -246.3125 359.4375 C-244.3339502 359.51266846 -244.3339502 359.51266846 -242.31542969 359.58935547 C-237.32022237 359.78078121 -232.32536559 359.98035672 -227.33056641 360.18212891 C-225.18774741 360.26761115 -223.04484438 360.35101779 -220.90185547 360.43212891 C-210.01310214 360.84562587 -199.14925757 361.33177431 -188.30078125 362.3828125 C-187.514151 362.45700409 -186.72752075 362.53119568 -185.91705322 362.6076355 C-180.73839103 363.14896175 -175.79341415 364.15904919 -170.75 365.4375 C-165.12570706 366.86314671 -159.61828319 367.9273369 -153.84375 368.51953125 C-153.0289769 368.60362747 -152.2142038 368.68772369 -151.3747406 368.77436829 C-141.57584856 369.70558755 -131.75858449 369.82864747 -121.92364502 370.04214478 C-94.69143471 370.67797363 -67.57103017 372.45070276 -40.41465378 374.5234108 C-37.49772566 374.74541627 -34.58057768 374.9642927 -31.6633606 375.1824646 C-8.72016002 376.90590567 14.13736798 379.05898409 36.99580383 381.67712402 C51.39661427 383.32363627 65.79463158 384.66855972 80.25 385.75 C82.41997192 385.91928164 84.58989368 386.0892073 86.75976562 386.25976562 C92.55828528 386.71035234 92.55828528 386.71035234 98.35766602 387.1496582 C99.10129898 387.20563675 99.84493195 387.2616153 100.61109924 387.31929016 C102.63367442 387.4344357 104.66164984 387.4375 106.6875 387.4375 C106.66429687 386.37958252 106.64109375 385.32166504 106.6171875 384.23168945 C106.43893169 372.23807276 107.37406906 360.53733384 108.6875 348.625 C108.97543319 345.9444676 109.2606805 343.26367703 109.54345703 340.58259583 C109.7180008 338.93499257 109.89586196 337.28773608 110.07763672 335.64091492 C110.48231824 331.88959555 110.79269626 328.21188534 110.6875 324.4375 C104.91389188 321.48028608 100.25105581 320.97509879 93.8125 321.0625 C92.96558594 321.05089844 92.11867188 321.03929687 91.24609375 321.02734375 C85.20657422 321.05509039 80.28297513 322.22136626 74.6875 324.4375 C73.50285156 324.89511719 72.31820313 325.35273437 71.09765625 325.82421875 C69.99292969 326.25347656 68.88820313 326.68273437 67.75 327.125 C59.83519891 329.94502062 52.56678877 331.04521892 44.67578125 327.58203125 C36.98462638 323.15470635 31.97983109 316.51518234 27.13720703 309.27416992 C24.05444262 304.68406892 24.05444262 304.68406892 19.6875 301.4375 C8.71740609 301.06150888 -2.36878165 310.05495447 -10.875 316 C-22.42325369 324.06569813 -33.85766784 330.85485373 -48.4140625 329.1015625 C-63.59201993 325.6241329 -72.9075669 314.24809665 -81.8515625 302.3984375 C-83.21076181 300.58236067 -83.21076181 300.58236067 -85.3125 298.4375 C-89.45179695 298.4375 -90.16626645 298.6801181 -93.40234375 300.8515625 Z M-280.65625 384.5703125 C-285.95784132 390.54710649 -287.46216472 396.33712526 -287.625 404.1875 C-287.68107422 405.94320312 -287.68107422 405.94320312 -287.73828125 407.734375 C-287.35317576 411.0837328 -286.96432756 412.38993242 -285.421875 415.203125 C-282.77301752 420.06710203 -282.07448309 425.00996106 -281.25 430.4375 C-280.20442913 437.14011153 -278.92581997 443.15960952 -276.3125 449.4375 C-265.57063717 449.03965323 -258.01762876 442.45467418 -249.9543457 435.95336914 C-245.21119938 432.1729223 -240.78318658 428.78106694 -234.5 429.375 C-224.96391424 430.74545544 -219.23076524 437.20084219 -213.2578125 444.265625 C-210.54174446 447.29802225 -208.87320716 448.35739898 -204.8125 448.9375 C-195.68756158 448.60628626 -188.47669527 441.8993554 -181.75 436.375 C-167.0546269 424.31157893 -167.0546269 424.31157893 -158.3671875 424.95703125 C-151.90698163 426.46768776 -146.49091849 430.23134952 -141.1875 434.0625 C-135.0782417 438.4371483 -129.43672081 441.13174895 -121.79296875 440.85546875 C-113.87270149 439.52087253 -106.43444525 435.11818095 -99.37109375 431.453125 C-92.99101346 428.3054573 -84.8092443 428.33014866 -77.96484375 430.015625 C-72.78714546 432.35462628 -68.94190672 436.42309561 -64.8203125 440.2421875 C-59.31818181 445.05869443 -54.08728436 448.27058207 -46.61328125 447.79296875 C-41.21679817 446.9592167 -36.23003539 445.24895074 -31.2109375 443.125 C-21.97389844 439.24500268 -13.93691345 437.53027335 -4.25 440.9375 C0.68629097 443.12085947 4.66918449 446.33603838 8.75390625 449.828125 C13.53793252 452.45265073 17.91875028 452.18104528 23.12573242 450.78271484 C25.61934767 449.92862498 28.05726007 448.98988113 30.5 448 C32.15172859 447.35389393 33.80405174 446.70930526 35.45703125 446.06640625 C36.17479736 445.77838135 36.89256348 445.49035645 37.63208008 445.19360352 C49.92892628 440.67010516 61.10328471 444.14707825 72.48144531 449.35498047 C75.91203194 451.03838254 79.18233762 452.93915048 82.4375 454.9375 C83.0550415 455.31656494 83.67258301 455.69562988 84.30883789 456.08618164 C87.16291971 457.85169828 89.9981276 459.63838027 92.81640625 461.4609375 C102.61609375 467.16038765 112.47612904 467.873475 123.61328125 468.83203125 C128.12065683 469.22370229 132.3879999 469.90178651 136.76806641 471.02954102 C139.77861067 471.66940612 142.62136813 471.5679737 145.6875 471.4375 C146.3990625 469.6121875 146.3990625 469.6121875 147.125 467.75 C147.39183594 467.06550781 147.65867187 466.38101563 147.93359375 465.67578125 C152.03567631 453.49705944 150.89052786 438.00696567 145.6875 426.4375 C138.73021097 413.01693063 125.85755236 405.71204795 111.87890625 401.11328125 C99.668482 397.63750969 87.09582131 396.42847704 74.45068359 395.90698242 C56.23527816 395.14712089 38.17056393 393.16882917 20.0625 391.125 C-1.27553211 388.72054685 -22.61025962 386.46812479 -44 384.5625 C-45.13939026 384.45940521 -46.27878052 384.35631042 -47.45269775 384.25009155 C-73.09701844 381.93926873 -98.57727884 381.20809675 -124.32250977 381.03613281 C-143.18091989 380.90021634 -161.4579674 380.22107498 -179.70703125 375.0859375 C-205.47189959 368.67369141 -259.99715897 364.84257393 -280.65625 384.5703125 Z M-164.0625 439.75 C-164.85011719 440.29011719 -165.63773437 440.83023437 -166.44921875 441.38671875 C-168.63578405 442.95281259 -170.80108402 444.53718812 -172.95703125 446.14453125 C-173.6025293 446.6243042 -174.24802734 447.10407715 -174.91308594 447.59838867 C-176.19066243 448.5518016 -177.46371629 449.51131488 -178.73144531 450.4777832 C-188.55167222 457.82988762 -196.95934558 460.4548186 -209.3125 459.4375 C-217.1407685 457.46258728 -222.55373278 452.14848628 -228.15625 446.6171875 C-231.64755852 443.30583875 -231.64755852 443.30583875 -236.1875 442.0625 C-239.30969001 443.4362636 -240.75812496 444.67645001 -243.1875 447 C-247.26437762 450.84807327 -251.45590732 453.34803706 -256.4375 455.8125 C-257.1063623 456.14580322 -257.77522461 456.47910645 -258.46435547 456.82250977 C-264.89098906 459.90751566 -271.08541832 462.09450743 -278.3125 461.4375 C-283.04374526 459.6396268 -285.81970408 457.02731803 -289.3125 453.4375 C-289.9725 453.4375 -290.6325 453.4375 -291.3125 453.4375 C-297.01517417 493.69421533 -297.01517417 493.69421533 -288.5 530.75 C-257.44017804 561.93711632 -166.83838804 558.52524609 -126.25985718 558.68148804 C-101.75005084 558.72502076 -77.27223517 558.05949906 -52.77752686 557.2940979 C-34.0139913 556.70816651 -15.27530674 556.2802503 3.5 556.375 C69.11309877 560.35232854 69.11309877 560.35232854 126.6875 537.4375 C129.81448712 533.91623892 131.4063724 531.01759621 132.67578125 526.4921875 C133.00529785 525.3484668 133.33481445 524.20474609 133.67431641 523.02636719 C134.00866699 521.84204102 134.34301758 520.65771484 134.6875 519.4375 C135.38537791 517.12640922 136.08719139 514.81650314 136.79296875 512.5078125 C137.48769617 510.19292339 138.18170517 507.87781856 138.875 505.5625 C139.23013672 504.39203125 139.58527344 503.2215625 139.95117188 502.015625 C141.60104309 496.49309592 143.12644141 491.18207006 143.6875 485.4375 C127.5098571 481.64169462 127.5098571 481.64169462 111.0625 479.4375 C97.55991351 478.15824518 87.73087737 472.43935794 76.65234375 465.03515625 C67.99664818 459.2844965 59.32103401 454.81901894 48.6875 455.4375 C45.75347346 456.19593457 42.95380796 457.23126674 40.125 458.3125 C38.66549332 458.85191096 37.20586016 459.39097982 35.74609375 459.9296875 C33.34654529 460.81999505 30.9483196 461.71365706 28.55078125 462.609375 C20.78338424 464.85588 12.56186495 464.17199607 5.234375 460.85546875 C1.11519449 458.56212132 -2.72651553 455.89657294 -6.55078125 453.14453125 C-9.99457106 451.01590869 -12.61336253 450.0623333 -16.63671875 450.95068359 C-17.41660156 451.24281738 -18.19648438 451.53495117 -19 451.8359375 C-19.86367188 452.15046875 -20.72734375 452.465 -21.6171875 452.7890625 C-22.50664062 453.12679688 -23.39609375 453.46453125 -24.3125 453.8125 C-26.08224035 454.46909932 -27.85304481 455.12283903 -29.625 455.7734375 C-30.40488281 456.06782715 -31.18476563 456.3622168 -31.98828125 456.66552734 C-42.26653763 460.07937679 -54.47103513 459.96135781 -64.296875 455.34375 C-68.73584973 452.53776597 -72.61804541 449.1571304 -76.41845703 445.54003906 C-78.9183015 443.20782691 -80.91179421 441.5994636 -84.10546875 440.30859375 C-89.03187304 440.50661 -92.87292396 442.59866551 -97.25 444.75 C-109.58773717 450.67614399 -121.23335881 453.72922526 -134.8515625 450.6328125 C-142.3011936 448.00459715 -148.36519816 443.92734844 -154.6328125 439.23046875 C-158.60185317 436.57479868 -160.37669389 437.21422254 -164.0625 439.75 Z " fill="#2D2D2D" transform="translate(444.3125,293.5625)"/>
<path d="M0 0 C3.05231773 2.66099495 3.87508693 4.33796071 4.625 8.3125 C3.62134326 14.23407478 -0.03214179 17.71035366 -3.86328125 22.16796875 C-7.91452254 27.0148446 -11.22476536 31.91627758 -14.25 37.4375 C-31.09938445 68.01437243 -31.09938445 68.01437243 -41 71 C-44.87059138 71.56186004 -46.81012362 71.68966002 -50.18359375 69.734375 C-52 68 -52 68 -52.41796875 66.01171875 C-50.46570193 46.32360424 -33.8266406 27.16951753 -21 13 C-20.20118408 12.11078857 -20.20118408 12.11078857 -19.38623047 11.20361328 C-17.74344853 9.37941984 -16.09316527 7.56250465 -14.4375 5.75 C-13.92445313 5.18821045 -13.41140625 4.6264209 -12.8828125 4.04760742 C-8.38619832 -0.80276666 -6.59895538 -1.5928513 0 0 Z " fill="#2D2D2D" transform="translate(526,208)"/>
<path d="M0 0 C3.29406406 1.67810811 5.36255764 3.05769391 7.4375 6.125 C9.06535352 14.44514022 6.17391489 21.85618922 3.43994141 29.60986328 C1.04616168 36.51843944 -0.65898428 43.5065262 -2.17480469 50.65551758 C-3.81066724 58.08132021 -5.82893483 66.06314787 -12 71 C-14.82001327 72.41000664 -16.87007255 72.24548451 -20 72 C-23.37672835 70.58648581 -24.76053748 69.35506512 -26.8125 66.3125 C-29.54659386 58.68581714 -27.45077464 52.07214293 -25.078125 44.65625 C-24.77686707 43.68772095 -24.47560913 42.71919189 -24.16522217 41.72131348 C-23.52833239 39.6824612 -22.88591458 37.6453284 -22.23828125 35.60986328 C-21.25432722 32.51361663 -20.28991364 29.41178807 -19.328125 26.30859375 C-18.70427562 24.31995118 -18.0793122 22.33165767 -17.453125 20.34375 C-17.16753723 19.42581665 -16.88194946 18.5078833 -16.58770752 17.56213379 C-10.61914398 -1.07991295 -10.61914398 -1.07991295 0 0 Z " fill="#2D2D2D" transform="translate(443,187)"/>
<path d="M0 0 C6.79347874 4.22705344 8.45730202 10.90537011 10.2265625 18.2578125 C10.41971039 19.04211639 10.61285828 19.82642029 10.81185913 20.63449097 C11.21707428 22.28929576 11.61859037 23.94501026 12.01660156 25.6015625 C12.6188445 28.09946899 13.23827441 30.59266228 13.859375 33.0859375 C19.55308323 56.29872568 19.55308323 56.29872568 16.92211914 60.87475586 C14.289324 63.66612327 11.17443802 64.41814976 7.4375 64.8125 C4.79382447 64.6000801 3.44705145 64.46473666 1.58056641 62.52441406 C-1.62157823 57.18169807 -3.52009001 51.95866396 -5.0625 45.9375 C-5.31290039 44.99592041 -5.56330078 44.05434082 -5.82128906 43.08422852 C-7.90773458 34.96811616 -9.41801673 26.77898364 -10.70727539 18.50170898 C-11.407193 14.05102161 -12.17105316 10.14937279 -14 6 C-13.9375 3.375 -13.9375 3.375 -13 1 C-8.7334385 -3.00798201 -5.00150105 -2.05944161 0 0 Z " fill="#2D2D2D" transform="translate(363,198)"/>
<path d="M0 0 C9.39620367 4.89385608 13.846167 13.88814021 18.5625 22.9375 C19.66549399 25.0312535 20.77091773 27.123729 21.87890625 29.21484375 C22.40307129 30.20814697 22.92723633 31.2014502 23.46728516 32.22485352 C24.8362962 34.70359652 26.30279937 37.04320835 27.87109375 39.3984375 C30.93570179 44.19157624 30.7604234 48.46964802 30 54 C29 57.1875 29 57.1875 27 59 C23.87073734 59.45167966 21.9948516 59.70020971 19 59 C16.5009363 57.09920163 14.91835495 54.72113163 13.1875 52.125 C12.68323486 51.40828125 12.17896973 50.6915625 11.65942383 49.953125 C10.06831339 47.65863111 8.52859373 45.33653698 7 43 C6.505 42.25202148 6.01 41.50404297 5.5 40.73339844 C0.35593609 32.88391262 -4.32488324 24.87327481 -8.1875 16.3125 C-8.47923096 15.67763672 -8.77096191 15.04277344 -9.0715332 14.38867188 C-10.88831105 10.12934344 -11.26578989 6.60111823 -11 2 C-7.16177822 0.19377799 -4.23634378 -0.51873597 0 0 Z " fill="#2E2E2E" transform="translate(299,218)"/>
<path d="M0 0 C2.3125 1.3125 2.3125 1.3125 4.3125 3.3125 C4.62787716 7.64893601 4.76147847 9.63903229 2.3125 13.3125 C2.8075 13.68375 3.3025 14.055 3.8125 14.4375 C5.95376944 17.1140868 5.66035248 18.97311623 5.3125 22.3125 C4.6525 23.3025 3.9925 24.2925 3.3125 25.3125 C-4.48278542 23.40044886 -4.48278542 23.40044886 -6.6875 20.3125 C-6.9453125 17.60546875 -6.9453125 17.60546875 -6.8125 14.5 C-6.70004097 10.28278641 -6.76661574 6.45647916 -7.6875 2.3125 C-3.40273619 -0.8704674 -3.40273619 -0.8704674 0 0 Z " fill="#2D2D2D" transform="translate(313.6875,681.6875)"/>
<path d="M0 0 C3.37013946 0.53212728 5.01926268 1.79937209 7.2265625 4.3515625 C7.5565625 6.0015625 7.8865625 7.6515625 8.2265625 9.3515625 C3.7715625 12.3215625 3.7715625 12.3215625 -0.7734375 15.3515625 C-5.14795065 13.16430593 -5.57626952 12.44542646 -7.5234375 8.2265625 C-7.95140625 7.31648438 -8.379375 6.40640625 -8.8203125 5.46875 C-9.29210937 4.42074219 -9.29210937 4.42074219 -9.7734375 3.3515625 C-6.78866824 -0.23206174 -4.46440509 -0.1599624 0 0 Z " fill="#2D2D2D" transform="translate(362.7734375,424.6484375)"/>
<path d="M0 0 C3.9375 0.5625 3.9375 0.5625 6.375 2.125 C8.37406214 5.24353694 8.65610476 7.90436183 8.9375 11.5625 C6.22500411 13.55698227 4.45143692 14.52898237 1.0625 14.75 C-3.62406039 12.96910705 -6.05893943 9.46357424 -9.0625 5.5625 C-6.32379793 2.13912242 -4.41315885 0.18972459 0 0 Z " fill="#2D2D2D" transform="translate(195.0625,683.4375)"/>
<path d="M0 0 C5.60226642 0.14364786 8.85297291 2.76640495 13.14453125 6.015625 C15.34735634 8.37148846 15.81381141 9.80376251 16 13 C14.4375 15.375 14.4375 15.375 12 17 C8.50001225 17 6.62131947 16.43147185 3.75 14.4375 C0.57272088 10.01200408 0 5.36294528 0 0 Z " fill="#2E2E2E" transform="translate(529,578)"/>
<path d="M0 0 C4.39660094 0.03975227 8.22072941 0.9827084 12.4375 2.1875 C11.90470718 6.71623901 10.46292682 9.76399071 7.4375 13.1875 C4 13.875 4 13.875 0.4375 13.1875 C-2.5 11.125 -2.5 11.125 -4.5625 8.1875 C-4.9375 4.4375 -4.9375 4.4375 -4.5625 1.1875 C-3.5625 0.1875 -3.5625 0.1875 0 0 Z " fill="#2D2D2D" transform="translate(319.5625,425.8125)"/>
<path d="M0 0 C3.05671738 1.67819778 5.35003084 3.1239546 7.4375 5.9375 C8.17316353 8.63493294 7.8365889 10.35080181 7 13 C5 15 5 15 2.1875 15.4375 C-2.07626944 14.85227674 -3.3471737 13.31603288 -6 10 C-7.45265774 7.29277421 -8.08924663 5.80321968 -7.75 2.75 C-6.2706306 -0.70186193 -3.33504645 -0.37898255 0 0 Z " fill="#2D2D2D" transform="translate(209,701)"/>
<path d="M0 0 C2.57290484 2.43748879 3.78495963 4.11833448 4.625 7.5625 C4 10 4 10 1 12.3125 C0.01 12.869375 -0.98 13.42625 -2 14 C-5.08693704 12.64147869 -7.08641734 11.15489047 -9.3125 8.625 C-9.84488281 8.03976562 -10.37726563 7.45453125 -10.92578125 6.8515625 C-12 5 -12 5 -11.8046875 2.85546875 C-11 1 -11 1 -8.8125 -0.3125 C-5.3731718 -1.15322467 -3.37851507 -1.07824949 0 0 Z " fill="#2E2E2E" transform="translate(347,558)"/>
<path d="M0 0 C4.98469052 -0.29321709 8.04820644 -0.18338925 12 3 C13.9375 5.375 13.9375 5.375 15 8 C14.10394232 11.85304802 13.34846101 12.76769266 10 15 C8.70590711 14.38003922 7.41480327 13.75383647 6.125 13.125 C5.40570313 12.77695312 4.68640625 12.42890625 3.9453125 12.0703125 C2 11 2 11 0 9 C-0.1953125 6.8359375 -0.1953125 6.8359375 -0.125 4.375 C-0.10695313 3.55773437 -0.08890625 2.74046875 -0.0703125 1.8984375 C-0.04710937 1.27195312 -0.02390625 0.64546875 0 0 Z " fill="#2C2C2C" transform="translate(345,685)"/>
<path d="M0 0 C10.07296768 -0.4510284 10.07296768 -0.4510284 14 3 C15.4375 5.4375 15.4375 5.4375 16 8 C15.08659568 10.74021297 14.60070695 11.69964653 12 13 C8.64484908 12.82949233 5.33951524 12.38532868 2 12 C1.34 8.04 0.68 4.08 0 0 Z " fill="#2D2D2D" transform="translate(393,580)"/>
<path d="M0 0 C2 1.75 2 1.75 3 4 C3.1875 7.25 3.1875 7.25 3 10 C0.49592582 11.63727927 -0.90825552 12.00195201 -3.9375 11.9375 C-7.86328825 10.73572809 -9.53262389 9.26564485 -12 6 C-12.3125 2.6875 -12.3125 2.6875 -12 0 C-8.04110083 -2.96917437 -4.25978801 -1.75456237 0 0 Z " fill="#2D2D2D" transform="translate(263,683)"/>
<path d="M0 0 C2.67506129 2.46928735 3.8003772 4.06842695 4.5625 7.625 C4 10 4 10 1.875 11.9375 C-1 13 -1 13 -4.125 12.375 C-8.50655022 10.27947598 -8.50655022 10.27947598 -10 8 C-10.6875 4.3125 -10.6875 4.3125 -11 1 C-7.21843183 -1.57146636 -4.31265475 -1.15517538 0 0 Z " fill="#2D2D2D" transform="translate(414,421)"/>
<path d="M0 0 C5.65863105 -0.29268781 9.02222358 -0.03522952 14 3 C15 4 15 4 15.25 6.9375 C15.1675 7.948125 15.085 8.95875 15 10 C11.48746854 12.34168764 10.13530644 12.49623677 6 12 C3.1875 10.5 3.1875 10.5 1 8 C0.2905475 5.26652123 0.14240354 2.84807084 0 0 Z " fill="#2D2D2D" transform="translate(393,561)"/>
<path d="M0 0 C6.26079448 -0.43177893 9.09075703 0.07260562 14 4 C13.25 9.75 13.25 9.75 11 12 C7.65486162 12 5.11625621 11.85824078 2.39453125 9.765625 C1 8.25 1 8.25 -1 5 C-0.8125 2.125 -0.8125 2.125 0 0 Z " fill="#2D2D2D" transform="translate(443,559)"/>
<path d="M0 0 C3.69628969 -0.21742881 6.45781172 -0.20764658 9.9375 1.125 C12 3 12 3 12.375 6.0625 C12 9 12 9 11 11 C3.71641791 11.35820896 3.71641791 11.35820896 1 10 C-0.63983879 6.72032242 -0.17845638 3.62861311 0 0 Z " fill="#2D2D2D" transform="translate(294,558)"/>
<path d="M0 0 C2.76967196 2.09596797 3.8617076 3.17024561 4.4375 6.625 C4.293125 7.40875 4.14875 8.1925 4 9 C0.76259258 11.15827162 -0.24233303 11.73320331 -4 11 C-6.64560747 8.00628629 -8.05549413 6.2486179 -7.875 2.1875 C-6.23975769 -1.90060577 -3.72323563 -1.15243008 0 0 Z " fill="#2D2D2D" transform="translate(471,438)"/>
<path d="M0 0 C6.75 1.625 6.75 1.625 9 5 C8.625 8.6875 8.625 8.6875 8 12 C1.6217765 12.36103152 1.6217765 12.36103152 -0.9375 10.875 C-2.48724515 8.14015561 -2.32162076 6.0875593 -2 3 C-1.34 2.01 -0.68 1.02 0 0 Z " fill="#2D2D2D" transform="translate(546,716)"/>
<path d="M0 0 C6.38603223 0.4819647 6.38603223 0.4819647 9 2.6875 C10.37236288 5.86108915 9.99557514 7.72882454 9 11 C6 13 6 13 3.375 12.6875 C1 12 1 12 0 11 C-0.07226502 9.14712498 -0.0838122 7.29166122 -0.0625 5.4375 C-0.05347656 4.42558594 -0.04445313 3.41367187 -0.03515625 2.37109375 C-0.02355469 1.58863281 -0.01195312 0.80617188 0 0 Z " fill="#2D2D2D" transform="translate(502,561)"/>
<path d="M0 0 C4.09789669 0.37943488 6.53958935 0.69305957 10 3 C10.25 6.5625 10.25 6.5625 10 10 C9.67 10.33 9.34 10.66 9 11 C1.60550459 10.40366972 1.60550459 10.40366972 -2 8 C-1.125 1.125 -1.125 1.125 0 0 Z " fill="#2D2D2D" transform="translate(401,708)"/>
<path d="M0 0 C7.27272727 0.36363636 7.27272727 0.36363636 10.5 3.1875 C12.21511245 6.40333585 12.33419641 8.40738862 12 12 C9.36 12 6.72 12 4 12 C3.3291288 10.3767313 2.66342971 8.75132422 2 7.125 C1.62875 6.22007812 1.2575 5.31515625 0.875 4.3828125 C0 2 0 2 0 0 Z " fill="#2B2B2B" transform="translate(306,581)"/>
<path d="M0 0 C8.10330579 1.98760331 8.10330579 1.98760331 10 5 C10.3125 7.5625 10.3125 7.5625 10 10 C9.34 10.66 8.68 11.32 8 12 C4.5 11.8125 4.5 11.8125 1 11 C-1.30441554 7.54337669 -1.25860135 6.05142119 -1 2 C-0.67 1.34 -0.34 0.68 0 0 Z " fill="#2D2D2D" transform="translate(378,678)"/>
<path d="M0 0 C8.23427332 0.79175705 8.23427332 0.79175705 11 4 C11.3125 7.125 11.3125 7.125 11 10 C10 11 10 11 6.625 11.375 C3 11 3 11 1.0625 8.875 C-0.10501612 5.71583874 -0.23312509 3.34145968 0 0 Z " fill="#2D2D2D" transform="translate(438,438)"/>
<path d="M0 0 C2.9425963 0.30652045 5.34542308 0.67271154 8 2 C8 4.64 8 7.28 8 10 C5.69 10.66 3.38 11.32 1 12 C-1.37600959 8.53498602 -2.57258316 6.23711541 -2 2 C-1.34 1.34 -0.68 0.68 0 0 Z " fill="#2D2D2D" transform="translate(230,565)"/>
<path d="M0 0 C1.9375 2.875 1.9375 2.875 3 6 C2.67 6.99 2.34 7.98 2 9 C-4.3782235 9.36103152 -4.3782235 9.36103152 -6.9375 7.875 C-8.44484863 5.214973 -8.19986253 2.99793795 -8 0 C-4.97172501 -1.51413749 -3.18944514 -0.97636076 0 0 Z " fill="#2C2C2C" transform="translate(500,698)"/>
<path d="M0 0 C4.12751449 0.60698743 7.3321148 2.03810791 11 4 C11.042721 5.66611905 11.04063832 7.33382885 11 9 C10 10 10 10 7.1875 10.3125 C4 10 4 10 1.625 8.375 C-0.4131192 5.3962104 -0.32152515 3.53677664 0 0 Z " fill="#2D2D2D" transform="translate(566,733)"/>
<path d="M0 0 C5.41538462 -0.36923077 5.41538462 -0.36923077 8.375 1.5 C8.91125 1.995 9.4475 2.49 10 3 C9.6875 5.375 9.6875 5.375 9 8 C8.01 8.66 7.02 9.32 6 10 C3.0625 8.8125 3.0625 8.8125 0 7 C-0.9375 4.4375 -0.9375 4.4375 -1 2 C-0.67 1.34 -0.34 0.68 0 0 Z " fill="#2D2D2D" transform="translate(272,704)"/>
<path d="M0 0 C2.56687367 3.8503105 1.83288724 5.58569763 1 10 C-0.75 10.6875 -0.75 10.6875 -3 11 C-5.25 9.5625 -5.25 9.5625 -7 8 C-6.62952882 5.25851328 -6.31412056 3.41406801 -4.625 1.1875 C-3 0 -3 0 0 0 Z " fill="#2D2D2D" transform="translate(464,716)"/>
<path d="M0 0 C3.55420724 0.29618394 4.80337043 0.80337043 7.375 3.375 C8.179375 4.674375 8.179375 4.674375 9 6 C8.67 6.99 8.34 7.98 8 9 C5.05610218 10.17755913 4.10046087 10.03348696 1 9 C-0.4783226 6.04335481 -0.06032783 3.25770263 0 0 Z " fill="#2C2C2C" transform="translate(380,711)"/>
<path d="M0 0 C6.75 0.75 6.75 0.75 9 3 C9 4.32 9 5.64 9 7 C3.55263158 8.33157895 3.55263158 8.33157895 1.125 6.875 C-0.32233508 4.46277487 -0.22417836 2.7648665 0 0 Z " fill="#2E2E2E" transform="translate(431,708)"/>
<path d="M0 0 C2.31 0 4.62 0 7 0 C7.66 1.65 8.32 3.3 9 5 C6 7 6 7 3.375 6.6875 C1 6 1 6 0 5 C-0.04063832 3.33382885 -0.042721 1.66611905 0 0 Z " fill="#2C2C2C" transform="translate(497,718)"/>
<path d="M0 0 C3.53571429 0.53571429 3.53571429 0.53571429 5 2 C5.04080783 3.99958364 5.04254356 6.00045254 5 8 C2.69 7.67 0.38 7.34 -2 7 C-2.125 4.625 -2.125 4.625 -2 2 C-1.34 1.34 -0.68 0.68 0 0 Z " fill="#2C2C2C" transform="translate(432,691)"/>
</svg>
